# xmcd
#
# Track frame offsets:
#	150
#	11572
#	23810
#	41570
#	51560
#	69552
#	82540
#	95180
#	110992
#	122565
#	136367
#	149835
#	166020
#	179322
#	194242
#	206312
#	229687
#	242940
#
# Disc length: 3401 seconds
#
# Revision: 1
# Processed by: cddbd v1.5.2PL0 Copyright (c) Steve Scherf et al.
# Submitted via: audiograbber 1.83.01
#
DISCID=080d4712
DTITLE=John Lee Hooker - the legendary John Lee Hooker
DYEAR=1995
DGENRE=Blues
TTITLE0=Boom Boom
TTITLE1=I'm In The Mood
TTITLE2=I'm Going Home
TTITLE3=Dimples
TTITLE4=House Rent Boogie
TTITLE5=I'm So Excited
TTITLE6=Hobo Blues
TTITLE7=Dirty Groundhog
TTITLE8=I Love You Honey
TTITLE9=Louise
TTITLE10=Love Blues
TTITLE11=Peace Lovin' Man
TTITLE12=One Bourbon, One Scotch, One Beer
TTITLE13=I'll Never Trust Your Love Again
TTITLE14=I'm Mad Again
TTITLE15=The Waterfront
TTITLE16=Don't Look Back
TTITLE17=Walkin' The Boogie
EXTD=YEAR: 1995
EXTT0=
EXTT1=
EXTT2=
EXTT3=
EXTT4=
EXTT5=
EXTT6=
EXTT7=
EXTT8=
EXTT9=
EXTT10=
EXTT11=
EXTT12=
EXTT13=
EXTT14=
EXTT15=
EXTT16=
EXTT17=
PLAYORDER=
